<svg width="569" height="601" viewBox="0 0 569 601" fill="none" xmlns="http://www.w3.org/2000/svg">
<path d="M508.649 411.302C436.586 535.891 310.758 577.252 181.332 559.719C28.1023 538.958 18.0711 370.696 17.8656 369.113C-2.79226 209.691 69.908 110.58 109.095 73.8465C162.897 23.4243 253.679 24.7743 294.368 80.1965C320.827 116.241 344.435 110.419 366.394 107.641C388.364 104.863 506.152 104.041 540.234 192.191C571.908 274.091 547.399 344.313 508.649 411.302Z" fill="#FDEACF"/>
<path d="M508.649 411.302C436.586 535.891 310.758 577.252 181.332 559.719C28.1023 538.958 18.0711 370.696 17.8656 369.113C-2.79226 209.691 69.908 110.58 109.095 73.8465C162.897 23.4243 253.679 24.7743 294.368 80.1965C320.827 116.241 344.435 110.419 366.394 107.641C388.364 104.863 506.152 104.041 540.234 192.191C571.908 274.091 547.399 344.313 508.649 411.302Z" fill="#CEF4DB"/>
<path opacity="0.5" d="M142.793 291.678C147.782 294.612 153.119 296.612 158.577 297.678L161.701 311.801L171.095 311.334L180.489 310.867L182.343 296.501C187.686 294.901 192.817 292.384 197.527 288.973L209.208 296.634L215.54 289.301L221.873 281.967L213.549 270.423C216.331 265.162 218.227 259.534 219.239 253.778L232.631 250.484L232.189 240.578L231.746 230.673L218.122 228.717C216.605 223.084 214.218 217.673 210.983 212.706L218.248 200.389L211.294 193.712L204.34 187.034L193.392 195.812C188.402 192.878 183.065 190.878 177.607 189.812L174.483 175.689L165.089 176.156L155.695 176.623L153.841 190.989C148.498 192.589 143.367 195.106 138.657 198.517L126.971 190.867L120.639 198.201L114.306 205.534L122.63 217.078C119.848 222.339 117.952 227.967 116.94 233.723L103.547 237.017L103.99 246.923L104.433 256.828L118.057 258.784C119.574 264.417 121.961 269.828 125.196 274.795L117.931 287.112L124.885 293.789L131.839 300.467L142.793 291.678ZM141.997 218.706C155.116 203.512 177.428 202.412 191.832 216.245C206.241 230.078 207.285 253.606 194.166 268.795C181.047 283.989 158.735 285.089 144.331 271.256C129.927 257.428 128.884 233.901 141.997 218.706Z" fill="#6DDF92"/>
<path d="M408.827 209.367C405.307 208.101 401.677 207.473 398.063 207.456L394.512 198.801L388.553 200.245L382.595 201.69L382.985 211.112C379.739 212.79 376.731 215.029 374.097 217.784L365.778 214.306L362.532 219.773L359.287 225.24L365.883 231.612C364.682 235.317 364.086 239.151 364.071 242.962L355.862 246.706L357.232 252.99L358.602 259.273L367.537 258.862C369.128 262.284 371.252 265.456 373.865 268.234L370.567 277.006L375.751 280.429L380.935 283.851L386.978 276.895C390.497 278.162 394.127 278.79 397.742 278.806L401.293 287.462L407.251 286.017L413.21 284.573L412.82 275.151C416.066 273.473 419.074 271.234 421.708 268.479L430.027 271.956L433.273 266.49L436.518 261.023L429.922 254.651C431.123 250.945 431.718 247.112 431.734 243.301L439.942 239.556L438.573 233.273L437.203 226.99L428.267 227.401C426.676 223.979 424.553 220.806 421.94 218.029L425.238 209.256L420.054 205.834L414.87 202.412L408.827 209.367ZM417.351 255.979C410.623 267.306 396.467 270.734 385.724 263.645C374.982 256.551 371.731 241.623 378.454 230.295C385.181 218.967 399.338 215.54 410.08 222.629C420.823 229.723 424.079 244.651 417.351 255.979Z" fill="#6DDF92"/>
<path d="M83.4639 298.307C82.4787 296.551 81.2406 295.012 79.8128 293.723L81.1774 289.029L78.3534 287.479L75.5295 285.929L72.6687 289.801C70.8458 289.312 68.9386 289.129 67.0103 289.285L64.8292 284.951L61.7945 285.962L58.7598 286.973L59.3341 291.846C57.6692 292.885 56.2099 294.19 54.9876 295.696L50.5357 294.257L49.0658 297.235L47.5958 300.212L51.268 303.229C50.8044 305.151 50.6305 307.162 50.778 309.196L46.6686 311.496L47.6274 314.696L48.5863 317.896L53.2068 317.29C54.192 319.046 55.4301 320.585 56.8579 321.873L55.4933 326.568L58.3173 328.118L61.1412 329.668L64.002 325.796C65.8249 326.285 67.7321 326.468 69.6604 326.312L71.8416 330.646L74.8762 329.635L77.9109 328.623L77.3366 323.751C79.0015 322.712 80.4609 321.407 81.6831 319.901L86.1351 321.34L87.605 318.362L89.0749 315.385L85.4027 312.368C85.8664 310.446 86.0402 308.435 85.8927 306.401L90.0021 304.101L89.0433 300.901L88.0844 297.701L83.4639 298.307ZM71.9311 319.801C65.6458 321.896 58.939 318.218 56.9527 311.59C54.9665 304.962 58.4543 297.89 64.7396 295.796C71.0249 293.701 77.7318 297.379 79.718 304.007C81.7042 310.635 78.2217 317.707 71.9311 319.801Z" fill="#6DDF92"/>
<path d="M446.344 335.413C443.119 335.724 440.016 336.585 437.134 337.93L431.386 332.374L427.129 335.763L422.872 339.152L426.365 346.502C424.353 349.052 422.714 351.963 421.545 355.152L413.753 355.507L413.015 361.074L412.277 366.641L419.68 369.235C419.975 372.635 420.791 375.907 422.066 378.946L416.798 385.007L420.012 389.496L423.225 393.985L430.196 390.302C432.614 392.424 435.375 394.152 438.399 395.385L438.736 403.602L444.015 404.38L449.294 405.157L451.754 397.352C454.979 397.041 458.082 396.18 460.964 394.835L466.712 400.391L470.969 397.002L475.226 393.613L471.733 386.263C473.745 383.713 475.384 380.802 476.553 377.613L484.345 377.257L485.083 371.691L485.821 366.124L478.418 363.53C478.123 360.13 477.307 356.857 476.032 353.819L481.3 347.757L478.086 343.269L474.873 338.78L467.902 342.463C465.484 340.341 462.723 338.613 459.699 337.38L459.362 329.163L454.083 328.385L448.804 327.607L446.344 335.413ZM468.861 369.302C467.333 380.841 457.223 388.885 446.286 387.274C435.343 385.663 427.714 375.002 429.242 363.469C430.77 351.93 440.88 343.885 451.818 345.496C462.755 347.107 470.389 357.763 468.861 369.302Z" fill="#6DDF92"/>
<path d="M459.863 158.08C458.414 158.219 457.018 158.608 455.722 159.213L453.14 156.713L451.228 158.235L449.315 159.758L450.885 163.063C449.979 164.208 449.241 165.519 448.72 166.952L445.216 167.113L444.884 169.613L444.552 172.113L447.877 173.28C448.009 174.808 448.377 176.28 448.952 177.646L446.581 180.369L448.024 182.385L449.468 184.402L452.603 182.746C453.688 183.702 454.931 184.48 456.291 185.03L456.443 188.724L458.814 189.074L461.185 189.424L462.291 185.919C463.74 185.78 465.136 185.391 466.433 184.785L469.014 187.285L470.927 185.763L472.839 184.241L471.269 180.935C472.175 179.791 472.913 178.48 473.434 177.046L476.938 176.885L477.27 174.385L477.602 171.885L474.277 170.719C474.146 169.191 473.777 167.719 473.203 166.352L475.573 163.63L474.13 161.613L472.686 159.596L469.551 161.252C468.466 160.296 467.223 159.519 465.864 158.969L465.711 155.274L463.34 154.924L460.969 154.574L459.863 158.08ZM469.984 173.313C469.299 178.496 464.752 182.113 459.836 181.391C454.921 180.669 451.491 175.874 452.176 170.691C452.861 165.508 457.408 161.891 462.323 162.613C467.239 163.335 470.668 168.124 469.984 173.313Z" fill="#6DDF92"/>
<path d="M182.343 102.491C187.154 102.202 198.423 101.696 208.222 102.563C212.274 102.924 215.778 99.5074 215.688 95.2186C215.651 93.463 215.056 91.4186 213.507 89.1074C207.559 80.1963 197.217 88.7074 197.317 93.2297C197.317 93.2297 195.225 86.4185 188.876 87.613C182.528 88.8074 184.772 98.7074 184.772 98.7074C184.772 98.7074 182.723 98.2519 181.3 99.2741C179.904 100.28 180.658 102.591 182.343 102.491Z" fill="white"/>
<path d="M413.294 177.452C408.316 168.185 398.737 173.068 398.737 173.068C393.348 161.768 384.223 169.635 384.223 169.635C384.223 169.635 385.571 147.185 366.689 147.452C350.225 147.685 349.824 170.618 349.824 170.618C346.316 170.602 344.161 171.557 342.844 172.829C341.469 174.163 341.558 176.157 342.528 177.452H413.294Z" fill="white"/>
<path d="M132.809 165.49C128.81 158.057 121.123 161.974 121.123 161.974C116.798 152.901 109.475 159.218 109.475 159.218C109.475 159.218 110.555 141.201 95.4023 141.418C82.1889 141.607 81.8675 160.007 81.8675 160.007C79.0488 159.996 77.3208 160.757 76.2671 161.779C75.1659 162.846 75.2344 164.451 76.0142 165.49H132.809V165.49Z" fill="white"/>
<path d="M240.882 346.562C231.214 343.628 196.648 365.756 187.717 370.445C182.038 373.428 160.39 384.284 145.385 391.789L144.184 390.662L132.862 398.045C131.286 398.834 130.385 399.284 130.385 399.284L130.665 399.478L130.443 399.623L126.302 461.601C125.364 475.645 133.778 488.495 146.56 492.562C157.297 495.978 189.029 501.128 202.148 502.906C215.604 504.734 228.259 496.267 232.689 483.106C232.689 483.106 269.069 419.634 273.12 415.173C280.343 407.223 288.088 373.978 288.088 373.978C288.088 373.978 250.55 349.495 240.882 346.562Z" fill="#E5957C"/>
<path d="M235.829 479.541C235.687 479.569 235.529 479.541 235.397 479.452C235.108 479.263 235.018 478.863 235.197 478.558L271.265 416.541C271.445 416.235 271.824 416.141 272.114 416.33C272.403 416.519 272.493 416.919 272.314 417.224L236.24 479.241C236.146 479.408 235.993 479.507 235.829 479.541Z" fill="#010103"/>
<path d="M287.719 210.307C287.719 210.307 303.73 202.029 310.627 214.774C317.518 227.524 303.835 240.151 299.315 242.401C294.795 244.651 287.719 210.307 287.719 210.307Z" fill="#FFB294"/>
<path d="M292.935 240.696C292.935 240.696 308.946 232.418 315.842 245.162C322.734 257.912 309.051 270.54 304.531 272.79C300.016 275.04 292.935 240.696 292.935 240.696Z" fill="#FFB294"/>
<path d="M292.54 268.545C292.54 268.545 308.551 260.267 315.447 273.012C322.339 285.762 308.656 298.39 304.136 300.64C299.615 302.89 292.54 268.545 292.54 268.545Z" fill="#FFB294"/>
<path d="M176.005 310.508C175.874 310.535 175.731 310.513 175.6 310.441C175.299 310.269 175.189 309.874 175.352 309.558L181.622 297.369C195.404 274.908 192.533 262.569 192.501 262.446C190.13 252.113 185.81 246.835 182.602 244.219C179.135 241.396 176.184 240.991 176.158 240.985C175.821 240.941 175.579 240.619 175.621 240.263C175.663 239.908 175.963 239.652 176.306 239.696C176.437 239.713 179.562 240.124 183.286 243.13C186.679 245.869 191.237 251.385 193.702 262.124C193.829 262.624 196.784 275.046 182.675 298.052L176.443 310.18C176.343 310.358 176.184 310.474 176.005 310.508Z" fill="#010103"/>
<path d="M178.487 246.339C179.736 246.901 181.042 248.728 180.989 250.223L181.121 249.795C181.706 247.917 180.378 245.462 178.814 244.762C176.311 243.639 173.893 242.912 171.712 242.439C171.359 242.862 171.053 243.351 170.779 243.895C173.113 244.356 175.753 245.112 178.487 246.339Z" fill="#FCB6A9"/>
<path d="M149.162 420.729C148.973 420.768 148.767 420.696 148.635 420.534C144.073 414.984 142.693 403.379 142.635 402.89C142.598 402.562 142.819 402.268 143.13 402.229C143.441 402.19 143.72 402.423 143.757 402.746C143.773 402.862 145.158 414.484 149.489 419.757C149.694 420.007 149.668 420.379 149.431 420.596C149.352 420.668 149.257 420.712 149.162 420.729Z" fill="#010103"/>
<path d="M156.638 423.084C156.491 423.112 156.333 423.079 156.201 422.979C150.611 418.595 146.886 407.579 146.734 407.112C146.628 406.801 146.786 406.462 147.081 406.351C147.376 406.24 147.698 406.406 147.803 406.718C147.84 406.829 151.57 417.856 156.881 422.023C157.134 422.218 157.181 422.595 156.997 422.856C156.902 422.984 156.775 423.062 156.638 423.084Z" fill="#010103"/>
<path d="M291.086 127.046C291.075 126.963 291.059 126.88 291.049 126.796C290.59 123.974 288.193 121.957 285.485 122.107C285.406 122.113 285.327 122.119 285.243 122.124C285.217 122.124 285.19 122.124 285.164 122.13L166.159 136.124C166.132 136.13 166.106 136.135 166.08 136.135C166.001 136.146 165.922 136.163 165.842 136.174C163.166 136.657 161.254 139.18 161.391 142.041C161.396 142.124 161.401 142.207 161.406 142.296C161.406 142.324 161.406 142.352 161.412 142.38L189.013 403.296C189.298 406.013 191.621 407.963 194.192 407.663L314.567 393.507C317.139 393.207 318.993 390.763 318.709 388.046L291.107 127.13C291.096 127.096 291.086 127.074 291.086 127.046Z" fill="white"/>
<path d="M159.183 141.006L168.171 132.834L284.158 119.512L295.327 127.751C295.327 127.751 295.501 138.778 294.879 139.023C294.257 139.262 159.842 156.745 159.615 154.562C159.388 152.373 159.183 141.006 159.183 141.006Z" fill="#099838"/>
<path d="M182.791 345.517L189.008 403.295C189.293 406.012 191.616 407.962 194.187 407.662L314.562 393.506C317.133 393.206 318.988 390.762 318.703 388.045L312.523 330.617L182.791 345.517Z" fill="#099838"/>
<g opacity="0.5">
<path d="M172.233 145.34C172.312 146.107 171.954 146.818 171.359 147.185C171.148 147.318 170.905 147.407 170.642 147.44C170.384 147.468 170.131 147.44 169.894 147.357C169.241 147.14 168.735 146.529 168.656 145.762C168.545 144.718 169.262 143.779 170.247 143.662C171.232 143.546 172.122 144.296 172.233 145.34Z" fill="white"/>
<path d="M177.77 144.691C177.849 145.458 177.491 146.169 176.896 146.536C176.685 146.669 176.443 146.758 176.179 146.791C175.916 146.824 175.663 146.791 175.426 146.713C174.773 146.491 174.267 145.886 174.188 145.119C174.077 144.074 174.788 143.136 175.779 143.019C176.769 142.897 177.66 143.647 177.77 144.691Z" fill="white"/>
<path d="M183.308 144.041C183.387 144.807 183.028 145.519 182.433 145.885C182.222 146.019 181.98 146.107 181.716 146.141C181.453 146.174 181.2 146.141 180.963 146.063C180.31 145.841 179.804 145.235 179.725 144.469C179.614 143.424 180.326 142.485 181.316 142.369C182.307 142.246 183.197 142.996 183.308 144.041Z" fill="white"/>
</g>
<path d="M318.413 385.346C318.856 389.552 315.985 393.341 312.002 393.807L196.753 407.363C192.765 407.83 189.171 404.807 188.724 400.602L161.712 145.246C161.217 140.552 164.42 136.33 168.867 135.807L282.445 122.446C286.892 121.924 290.901 125.302 291.402 129.991L318.413 385.346ZM282.087 116.752L168.034 130.169C160.695 131.03 155.405 138.002 156.227 145.746L183.518 403.73C184.335 411.468 190.952 417.041 198.291 416.18L312.344 402.763C319.683 401.902 324.973 394.93 324.151 387.185L296.86 129.202C296.038 121.463 289.426 115.891 282.087 116.752Z" fill="#20111D"/>
<path d="M300.343 292.878L186.539 305.951L186.891 309.353L300.695 296.28L300.343 292.878Z" fill="#CEF4DB"/>
<path d="M301.529 304.333L187.724 317.406L188.076 320.808L301.88 307.735L301.529 304.333Z" fill="#CEF4DB"/>
<path d="M302.709 315.79L188.905 328.863L189.256 332.265L303.06 319.192L302.709 315.79Z" fill="#CEF4DB"/>
<path d="M272.936 351.601C272.772 351.618 221.705 357.651 221.568 357.673H221.552C215.024 358.657 210.372 364.929 211.088 371.89C211.821 379.001 217.885 384.135 224.623 383.362C224.792 383.346 224.96 383.318 225.124 383.29L275.18 377.385C275.317 377.373 275.454 377.362 275.591 377.346C282.335 376.573 287.203 370.179 286.47 363.074C285.738 355.962 279.679 350.824 272.936 351.601Z" fill="#085E1F"/>
<path d="M173.545 311.457L182.069 390.079L129 417.596C129 417.596 119.569 354.502 123.499 343.379C127.424 332.252 136.834 310.863 138.899 298.852C140.97 286.846 153.209 277.974 162.307 266.802C171.401 255.629 166.506 239.146 177.107 240.752C187.707 242.357 198.897 263.446 190.768 280.24C182.638 297.035 173.545 311.457 173.545 311.457Z" fill="#E5957C"/>
<path d="M129.611 421.135C129.606 421.135 129.6 421.135 129.595 421.14C129.258 421.196 128.947 420.951 128.894 420.596C128.857 420.329 125.027 393.473 122.693 369.196C120.633 347.79 122.788 342.573 126.355 333.935C126.903 332.601 127.472 331.223 128.072 329.685C130.348 323.801 132.377 316.973 134.337 310.368C136.16 304.229 137.882 298.429 139.579 294.212C143.067 285.54 159.589 269.44 160.295 268.757C160.548 268.512 160.937 268.529 161.164 268.796C161.396 269.062 161.38 269.473 161.127 269.712C160.958 269.879 144.099 286.307 140.712 294.718C139.036 298.879 137.324 304.646 135.512 310.757C133.541 317.385 131.507 324.24 129.216 330.173C128.615 331.729 128.041 333.112 127.488 334.451C124 342.901 121.892 347.996 123.921 369.062C126.255 393.312 130.08 420.135 130.117 420.401C130.159 420.746 129.937 421.073 129.611 421.135Z" fill="#010103"/>
<path d="M178.84 245.023C176.327 243.895 173.887 243.1 171.622 242.545C168.471 246.512 168.956 255.95 164.309 263.895H164.315C164.315 263.895 168.498 265.323 172.381 264.578C176.264 263.839 177.307 262.039 177.307 262.039L180.905 250.517C181.606 248.284 180.705 245.862 178.84 245.023Z" fill="#EDCAC3"/>
<path d="M158.498 296.812C158.382 296.835 158.261 296.824 158.145 296.768C152.603 294.235 145.379 293.768 145.306 293.762C144.968 293.74 144.705 293.435 144.726 293.079C144.747 292.724 145.037 292.446 145.374 292.468C145.68 292.485 152.887 292.951 158.63 295.574C158.941 295.718 159.083 296.101 158.951 296.429C158.872 296.64 158.698 296.779 158.498 296.812Z" fill="#010103"/>
<path d="M155.611 301.857C155.495 301.879 155.374 301.868 155.258 301.812C149.716 299.279 142.492 298.812 142.419 298.807C142.081 298.784 141.818 298.479 141.839 298.118C141.86 297.762 142.15 297.49 142.487 297.507C142.793 297.523 150.005 297.99 155.743 300.612C156.054 300.757 156.201 301.14 156.064 301.468C155.98 301.679 155.806 301.818 155.611 301.857Z" fill="#010103"/>
<path opacity="0.08" d="M409.269 248.452L287.161 262.48C284.7 262.763 282.919 265.097 283.188 267.691L288.462 318.758C288.731 321.352 290.943 323.23 293.404 322.947L309.151 321.135L304.789 339.419L328.281 318.941L415.512 308.919C417.973 308.636 419.753 306.302 419.485 303.708L414.211 252.641C413.942 250.041 411.729 248.169 409.269 248.452Z" fill="#3D3D3D"/>
<path d="M407.667 246.968L285.559 260.996C283.099 261.279 281.318 263.612 281.587 266.207L286.86 317.273C287.129 319.868 289.342 321.746 291.802 321.462L307.55 319.651L303.187 337.934L326.68 317.457L413.911 307.434C416.371 307.151 418.152 304.818 417.883 302.223L412.609 251.157C412.341 248.557 410.128 246.684 407.667 246.968Z" fill="#FCCB4F"/>
<path d="M309.657 280.611L312.502 280.283C312.745 281.816 313.698 282.183 314.567 282.083C315.568 281.966 316.206 281.366 316.022 279.566L315.252 272.15L318.176 271.816L318.94 279.216C319.32 282.894 317.929 284.578 314.841 284.933C311.986 285.255 310.031 283.566 309.657 280.611Z" fill="#282D2B"/>
<path d="M320.758 277.755C320.368 273.978 322.644 271.033 326.422 270.6C330.168 270.172 333.034 272.472 333.434 276.3C333.824 280.061 331.564 283.005 327.749 283.444C324.035 283.872 321.153 281.572 320.758 277.755ZM330.41 276.65C330.189 274.516 328.74 273.211 326.717 273.444C324.762 273.666 323.561 275.244 323.782 277.411C324.003 279.528 325.452 280.833 327.454 280.605C329.446 280.372 330.631 278.8 330.41 276.65Z" fill="#282D2B"/>
<path d="M335.004 269.878L337.944 269.539L339.219 281.861L336.279 282.2L335.004 269.878Z" fill="#282D2B"/>
<path d="M351.263 268.012L352.538 280.373L351.057 280.545L343.908 274.456L344.609 281.251L341.748 281.578L340.473 269.234L341.937 269.067L349.103 275.139L348.402 268.345L351.263 268.012Z" fill="#282D2B"/>
<path d="M360.335 269.845L356.768 270.256L356.473 267.411L366.52 266.256L366.815 269.1L363.28 269.506L364.26 278.989L361.32 279.328L360.335 269.845Z" fill="#282D2B"/>
<path d="M368.243 266.056L371.12 265.729L371.662 270.979L376.267 270.451L375.724 265.201L378.601 264.873L379.876 277.195L376.999 277.523L376.557 273.223L371.952 273.751L372.395 278.051L369.518 278.379L368.243 266.056Z" fill="#282D2B"/>
<path d="M380.988 264.595L389.818 263.578L390.097 266.267L384.064 266.961L384.307 269.284L389.386 268.7L389.644 271.211L384.565 271.795L384.786 273.911L391.035 273.195L391.314 275.884L382.273 276.923L380.988 264.595Z" fill="#282D2B"/>
<path d="M327.834 291.75L324.751 304.611L323.303 304.778L319.562 298.05L317.333 305.461L315.906 305.628L310.242 293.772L313.466 293.4L316.301 299.883L318.303 292.844L319.799 292.672L323.197 299.139L324.667 292.111L327.834 291.75Z" fill="#282D2B"/>
<path d="M335.937 301.256L331.269 301.795L330.621 303.906L327.465 304.267L331.564 291.306L333.503 291.084L340.151 302.812L336.996 303.173L335.937 301.256ZM331.906 299.245L334.814 298.912L333.987 297.323L332.934 295.006L332.396 297.506L331.906 299.245Z" fill="#282D2B"/>
<path d="M340.499 290.294L343.444 289.955L344.719 302.283L341.779 302.622L340.499 290.294Z" fill="#282D2B"/>
<path d="M349.161 292.179L345.594 292.59L345.299 289.745L355.346 288.59L355.641 291.434L352.106 291.84L353.086 301.323L350.146 301.662L349.161 292.179Z" fill="#282D2B"/>
<path d="M357.069 288.396L360.014 288.057L360.994 297.54L366.684 296.884L366.979 299.729L358.349 300.723L357.069 288.396Z" fill="#282D2B"/>
<path d="M367.574 287.185L370.519 286.846L371.794 299.173L368.854 299.512L367.574 287.185Z" fill="#282D2B"/>
<path d="M373.67 298.046L374.476 295.373C375.688 295.846 377.184 296.135 378.432 295.99C379.486 295.868 380.076 295.468 379.997 294.707C379.923 293.979 379.265 293.757 377.842 293.64C375.171 293.401 373.296 292.779 373.037 290.262C372.79 287.885 374.149 286.19 377.205 285.835C379.012 285.629 380.513 285.807 381.773 286.273L380.845 288.907C379.85 288.618 378.648 288.407 377.495 288.535C376.494 288.651 375.951 289.046 376.014 289.668C376.093 290.446 377.026 290.585 378.775 290.773C381.093 290.996 382.753 291.612 383.011 294.112C383.274 296.679 381.978 298.268 378.838 298.623C376.768 298.868 375.298 298.646 373.67 298.046Z" fill="#282D2B"/>
<path d="M386.841 287.851L383.274 288.262L382.979 285.417L393.026 284.262L393.321 287.106L389.786 287.512L390.766 296.995L387.821 297.334L386.841 287.851Z" fill="#282D2B"/>
<path d="M225.145 366.523L225.967 374.485L225.013 374.596L220.408 370.673L220.862 375.051L219.018 375.262L218.196 367.312L219.139 367.201L223.754 371.112L223.301 366.735L225.145 366.523Z" fill="white"/>
<path d="M226.857 370.351C226.604 367.918 228.069 366.018 230.508 365.74C232.921 365.463 234.77 366.946 235.023 369.412C235.276 371.835 233.822 373.735 231.362 374.012C228.965 374.29 227.11 372.807 226.857 370.351ZM233.074 369.64C232.932 368.268 231.999 367.424 230.698 367.574C229.439 367.718 228.664 368.735 228.807 370.129C228.949 371.49 229.881 372.335 231.172 372.185C232.452 372.035 233.216 371.024 233.074 369.64Z" fill="white"/>
<path d="M237.584 366.952L235.287 367.218L235.097 365.385L241.567 364.641L241.757 366.474L239.481 366.735L240.113 372.846L238.216 373.063L237.584 366.952Z" fill="white"/>
<path d="M242.779 364.502L244.675 364.285L245.497 372.224L243.6 372.441L242.779 364.502Z" fill="white"/>
<path d="M246.308 364.097L251.972 363.447L252.157 365.247L248.342 365.686L248.527 367.497L251.756 367.125L251.941 368.892L248.711 369.264L248.974 371.831L247.12 372.042L246.308 364.097Z" fill="white"/>
<path d="M257.609 368.019L257.894 370.797L255.997 371.013L255.713 368.247L252.425 363.391L254.596 363.141L256.466 366.202L257.688 362.785L259.828 362.541L257.609 368.019Z" fill="white"/>
<path d="M270.955 361.252L271.777 369.202L269.964 369.408L269.569 365.602L267.962 368.308L267.314 368.38L265.196 366.124L265.586 369.908L263.774 370.113L262.952 362.163L263.916 362.052L267.377 365.791L269.985 361.358L270.955 361.252Z" fill="white"/>
<path d="M272.488 361.091L278.173 360.436L278.352 362.169L274.463 362.613L274.616 364.108L277.888 363.73L278.057 365.347L274.785 365.724L274.927 367.086L278.952 366.624L279.131 368.358L273.31 369.024L272.488 361.091Z" fill="white"/>
<path d="M396.208 452.969L397.015 452.385L384.655 433.43L384.533 433.369C363.401 423.191 350.288 429.08 349.74 429.335L350.135 430.28C350.267 430.219 363.38 424.363 384.001 434.246L396.208 452.969Z" fill="#1D1D1B"/>
<path d="M421.202 454.234L422.019 453.662L410.865 436.068L410.728 436.007C398.411 430.479 384.375 433.301 384.233 433.329L384.423 434.345C384.56 434.318 398.21 431.579 410.207 436.901L421.202 454.234Z" fill="#1D1D1B"/>
<path d="M231.794 183.063L203.449 210.63C202.575 211.48 202.153 212.724 202.311 213.963L208.128 259.752C208.438 262.186 210.562 263.897 212.869 263.574L274.184 254.913C276.492 254.586 278.115 252.347 277.809 249.913L271.993 204.124C271.834 202.886 271.113 201.802 270.059 201.224L235.835 182.497C234.512 181.763 232.895 181.991 231.794 183.063Z" fill="#099838"/>
<path d="M205.183 201.673L210.63 244.556C210.788 245.784 211.858 246.65 213.022 246.484L269.78 238.467C270.944 238.3 271.766 237.173 271.608 235.945L266.16 193.062C266.002 191.834 264.933 190.967 263.768 191.134L207.011 199.15C205.841 199.317 205.024 200.445 205.183 201.673Z" fill="#F9F9F9"/>
<path d="M226.52 211.295L248.732 208.156C249.122 208.101 249.396 207.723 249.343 207.317C249.29 206.912 248.932 206.617 248.548 206.673L226.336 209.812C225.946 209.867 225.672 210.245 225.724 210.651C225.777 211.062 226.135 211.351 226.52 211.295Z" fill="#EBF2FC"/>
<path d="M215.319 217.995L261.213 211.512C261.603 211.456 261.877 211.078 261.824 210.673C261.772 210.262 261.413 209.973 261.029 210.028L215.135 216.512C214.745 216.567 214.471 216.945 214.524 217.351C214.576 217.762 214.929 218.051 215.319 217.995Z" fill="#EBF2FC"/>
<path d="M261.666 215.062L215.772 221.545C215.382 221.6 215.108 221.978 215.161 222.384C215.214 222.795 215.572 223.084 215.957 223.028L261.851 216.545C262.241 216.489 262.514 216.112 262.462 215.706C262.414 215.295 262.056 215.006 261.666 215.062Z" fill="#EBF2FC"/>
<path d="M262.304 220.095L216.41 226.578C216.02 226.634 215.746 227.012 215.799 227.417C215.851 227.828 216.209 228.117 216.594 228.062L262.488 221.578C262.878 221.523 263.152 221.145 263.099 220.739C263.052 220.323 262.694 220.039 262.304 220.095Z" fill="#EBF2FC"/>
<path d="M262.947 225.122L217.052 231.605C216.663 231.661 216.389 232.039 216.441 232.444C216.494 232.855 216.852 233.144 217.237 233.089L263.131 226.605C263.521 226.55 263.795 226.172 263.742 225.766C263.689 225.361 263.331 225.066 262.947 225.122Z" fill="#EBF2FC"/>
<path d="M263.584 230.155L217.69 236.639C217.3 236.694 217.026 237.072 217.079 237.478C217.131 237.889 217.49 238.178 217.874 238.122L263.768 231.639C264.158 231.583 264.432 231.205 264.38 230.8C264.327 230.383 263.974 230.1 263.584 230.155Z" fill="#EBF2FC"/>
<path d="M212.869 263.567C210.562 263.895 208.438 262.184 208.128 259.745L202.311 213.956C202.469 215.195 203.191 216.278 204.245 216.856L240.676 236.795L270.849 207.451C271.724 206.601 272.145 205.356 271.987 204.117L277.804 249.906C278.115 252.339 276.492 254.578 274.179 254.906L212.869 263.567Z" fill="#0CCA4A"/>
<path d="M237.573 228.539L209.45 255.889C208.438 256.873 207.943 258.311 208.128 259.75C208.438 262.184 210.562 263.895 212.869 263.573L274.184 254.911C276.492 254.584 278.115 252.345 277.809 249.911C277.625 248.473 276.792 247.223 275.57 246.55L241.614 227.967C240.287 227.239 238.669 227.467 237.573 228.539Z" fill="#6DDF92"/>
<path d="M260.192 202.993C264.497 201.258 266.654 196.172 265.009 191.632C263.364 187.092 258.54 184.818 254.235 186.553C249.93 188.287 247.773 193.374 249.418 197.913C251.063 202.453 255.887 204.727 260.192 202.993Z" fill="#F2335A"/>
<path d="M257.815 191.234L258.663 197.901L257.199 198.107L256.508 192.673L255.244 192.851L255.086 191.612L257.815 191.234Z" fill="white"/>
<path d="M241.973 466.423C231.204 484.767 224.081 526.895 219.718 563.178C206.99 562.617 194.182 561.456 181.337 559.717C152.355 555.789 128.494 546.589 108.858 534.239C118.363 484.745 128.209 433.1 128.367 430.723C128.367 430.723 262.725 431.084 241.973 466.423Z" fill="#E5957C"/>
<path d="M449.81 485.457C449.668 485.591 449.521 485.724 449.373 485.857C449.32 485.907 449.268 485.957 449.21 486.002C448.599 486.563 447.987 487.118 447.376 487.668C446.628 488.346 445.875 489.018 445.116 489.674C444.526 490.196 443.941 490.713 443.346 491.224C442.798 491.702 442.25 492.18 441.691 492.646C441.091 493.157 440.49 493.663 439.89 494.168C437.925 495.824 435.944 497.441 433.936 499.03C433.272 499.557 432.603 500.085 431.934 500.602C430.101 502.041 428.246 503.446 426.381 504.824C425.032 505.818 423.678 506.807 422.314 507.78C420.955 508.752 419.585 509.707 418.21 510.652C416.835 511.596 415.454 512.53 414.063 513.446C408.811 516.924 403.463 520.207 398.031 523.302C397.462 523.63 396.893 523.952 396.324 524.268C395.149 524.93 393.964 525.585 392.779 526.224C391.915 526.696 391.045 527.157 390.171 527.618C389.054 528.213 387.932 528.802 386.804 529.374C386.061 529.757 385.318 530.135 384.57 530.507C383.859 530.863 383.148 531.218 382.436 531.563C382.052 531.752 381.667 531.941 381.283 532.13C379.997 532.757 378.706 533.368 377.41 533.974C376.689 534.313 375.961 534.646 375.24 534.98C375.087 535.052 374.929 535.124 374.766 535.196C374.133 535.485 373.501 535.768 372.864 536.052C372.426 536.252 371.989 536.446 371.552 536.635C371.062 536.852 370.572 537.068 370.082 537.28C368.891 537.796 367.695 538.307 366.499 538.807C366.257 538.907 366.015 539.007 365.767 539.113C365.309 539.307 364.85 539.496 364.392 539.68C363.933 539.868 363.475 540.052 363.017 540.241C362.337 540.513 361.657 540.785 360.978 541.052C360.182 541.374 359.381 541.685 358.575 541.991C357.864 542.263 357.158 542.535 356.447 542.807C356.205 542.896 355.957 542.991 355.709 543.08C355.051 543.324 354.397 543.568 353.739 543.807C353.054 544.057 352.38 544.307 351.695 544.546C350.757 544.885 349.814 545.218 348.871 545.541C348.202 545.774 347.527 546.002 346.858 546.235C345.899 546.557 344.935 546.88 343.971 547.191C343.223 547.441 342.475 547.68 341.721 547.918C341.036 548.141 340.346 548.357 339.656 548.574C338.687 548.874 337.717 549.174 336.743 549.463C335.836 549.741 334.92 550.007 334.008 550.274C333.202 550.507 332.401 550.735 331.595 550.963C330.763 551.196 329.93 551.43 329.098 551.657C328.208 551.902 327.307 552.141 326.411 552.38C324.82 552.796 323.218 553.207 321.617 553.602C321.601 553.607 321.585 553.613 321.569 553.613C319.889 554.03 318.203 554.43 316.517 554.818C315.674 555.013 314.826 555.202 313.977 555.391C313.15 555.574 312.318 555.752 311.491 555.935C310.611 556.124 309.731 556.307 308.851 556.485C308.013 556.652 307.176 556.824 306.333 556.991C305.516 557.152 304.699 557.307 303.883 557.463C302.992 557.63 302.102 557.796 301.206 557.957C296.776 554.957 293.509 553.124 285.548 546.752C282.04 543.941 276.787 540.391 271.476 536.991C271.471 536.985 271.471 536.985 271.46 536.98C271.455 536.974 271.455 536.974 271.45 536.974C271.445 536.968 271.434 536.963 271.424 536.957C271.413 536.952 271.402 536.941 271.392 536.935C264.195 532.33 256.909 527.996 253.727 526.118C253.205 525.813 252.799 525.574 252.515 525.413C252.483 525.391 252.452 525.374 252.425 525.357C252.409 525.346 252.394 525.341 252.383 525.335C252.336 525.307 252.304 525.291 252.294 525.285V525.28C252.288 525.28 252.288 525.274 252.288 525.274C252.141 525.191 252.025 525.052 251.988 524.885C251.098 521.207 257.473 513.913 257.473 513.913C270.67 501.63 307.613 522.685 307.613 522.685C307.613 522.685 336.358 542.568 343.039 532.007C343.039 531.996 343.039 531.991 343.044 531.985C343.102 531.891 343.165 531.796 343.223 531.691C349.529 520.43 328.956 473.702 328.956 473.702C328.956 473.702 280.796 370.568 279.015 367.68C273.9 359.385 273.515 347.63 281.565 343.107C285.596 340.846 289.8 342.096 292.993 343.907C295.88 345.541 298.293 347.957 300.111 350.83L349.935 429.807C350.083 429.724 350.23 429.646 350.378 429.574H350.383C362.537 423.396 384.328 433.835 384.328 433.835H384.333C384.491 433.774 384.655 433.718 384.818 433.668C393.648 430.846 410.533 436.48 410.533 436.48C410.533 436.48 410.697 436.402 411.018 436.307C412.667 435.807 418.631 434.774 429.711 440.824C434.943 443.68 442.392 462.685 449.81 485.457Z" fill="#E5957C"/>
<path d="M271.703 529.135C272.214 531.902 271.787 535.235 271.476 536.991C271.476 536.991 252.662 525.491 252.294 525.285C252.62 524.163 253.184 523.174 253.611 522.018C254.354 520.018 256.524 519.024 258.637 519.641C258.742 519.668 258.842 519.702 258.942 519.741L269.111 523.568C269.116 523.557 270.897 524.757 271.703 529.135Z" fill="#EDCAC3"/>
<path d="M258.669 519.585C258.664 519.585 258.653 519.585 258.648 519.585C257.184 519.53 255.44 520.98 254.923 522.374C254.454 523.635 254.049 524.935 253.722 526.146C253.722 526.146 252.363 525.319 252.3 525.285C252.605 524.207 252.958 523.107 253.374 521.991C254.028 520.23 256.399 518.752 258.248 519.43L258.669 519.585Z" fill="#EDCAC3"/>
<path d="M293.051 346.44C293.051 346.44 301.786 359.235 301.833 362.14C301.881 365.046 288.546 372.568 286.002 371.84C283.457 371.112 277.187 354.74 276.924 353.423C276.66 352.112 283.446 340.94 293.051 346.44Z" fill="#EDCAC3"/>
<path d="M293.051 346.44C293.051 346.44 293.214 346.679 293.488 347.09C284.389 343.768 277.693 353.64 277.582 355.396C277.208 354.379 276.971 353.662 276.924 353.429C276.66 352.112 283.446 340.94 293.051 346.44Z" fill="#EDCAC3"/>
<path d="M341.31 540.345C341.437 540.178 344.377 536.145 344.856 523.734C345.441 508.645 327.028 468.434 326.243 466.728C325.789 465.773 281.328 371.217 277.24 362.878C273.415 355.073 277.498 347.912 277.793 347.417C280.759 343.851 283.963 342.117 287.324 342.262C293.646 342.539 298.514 349.412 298.562 349.484L349.529 430.101L360.045 446.662L360.862 446.084L350.346 429.523L299.363 348.889C299.141 348.573 294.163 341.528 287.366 341.228C283.683 341.067 280.206 342.928 277.029 346.767L276.987 346.823C276.94 346.901 272.151 354.756 276.371 363.356C280.454 371.689 324.915 466.234 325.368 467.189C325.558 467.601 344.456 508.873 343.882 523.701C343.418 535.706 340.573 539.673 340.547 539.712L341.31 540.345Z" fill="#1D1D1B"/>
<path d="M450.19 485.108V485.102C443.609 465.135 435.991 444.908 431.096 441.213C421.123 433.691 410.539 435.952 410.433 435.974L410.533 436.48L410.639 436.985C410.739 436.963 420.918 434.802 430.527 442.052C435.238 445.602 442.814 465.896 449.373 485.858L450.19 485.108Z" fill="#1D1D1B"/>
</svg>
