<?xml version="1.0" encoding="utf-8"?>
<!-- Generator: Adobe Illustrator 26.2.1, SVG Export Plug-In . SVG Version: 6.00 Build 0)  -->
<svg version="1.1" id="Layer_1" xmlns="http://www.w3.org/2000/svg" xmlns:xlink="http://www.w3.org/1999/xlink" x="0px" y="0px"
	 viewBox="0 0 1080 1080" style="enable-background:new 0 0 1080 1080;" xml:space="preserve">
<style type="text/css">
	.st0{fill:#FFFFFF;}
	.st1{font-family:'ZonaPro-Bold';}
	.st2{font-size:176.6318px;}
	.st3{letter-spacing:-4;}
	.st4{fill:url(#SVGID_1_);}
	.st5{fill:url(#SVGID_00000065058341095199319310000015744731419803086736_);}
	.st6{fill:url(#SVGID_00000134953882599407363910000017686142092951504261_);}
</style>
<g>
	<text transform="matrix(1 0 0 1 332.1984 592.6369)" class="st0 st1 st2 st3">powse</text>
	<g>
		<linearGradient id="SVGID_1_" gradientUnits="userSpaceOnUse" x1="199.1392" y1="554.2108" x2="273.2537" y2="441.482">
			<stop  offset="0" style="stop-color:#FFFFFF"/>
			<stop  offset="0.3081" style="stop-color:#ABDCBB"/>
			<stop  offset="0.6459" style="stop-color:#54B875"/>
			<stop  offset="0.8846" style="stop-color:#1EA149"/>
			<stop  offset="1" style="stop-color:#099838"/>
		</linearGradient>
		<path class="st4" d="M219.95,526.98c0.36-0.56,0.72-1.02,1.02-1.37c0.18-0.21,0.32-0.35,0.43-0.46c2.91-3.03,2.91-3.03,5.32-5.7
			c2.28-2.52,7-7.72,18.83-20.61c-2.28-1.31-7.72-4.03-14.84-4.81c-1.36-0.15-2.71-0.22-4.03-0.22c-8.45,0-16.14,3.05-22.87,9.07
			c-1.17,1.05-2.32,2.19-3.4,3.39c-1.05,1.17-2.05,2.4-2.96,3.68c-4.21,5.89-6.76,12.83-7.57,20.61c-0.01,0.08-0.43,8.86,1.52,15.95
			c1.17,4.26,2.5,7.52,4.18,10.26c5.61,9.17,12.86,14.83,21.63,16.89c-4.16-6.15-6.59-13.56-6.59-21.55
			C210.61,542.5,214.13,533.72,219.95,526.98z"/>
		
			<linearGradient id="SVGID_00000109015060303355741490000012188455208444230316_" gradientUnits="userSpaceOnUse" x1="247.1866" y1="607.6754" x2="353.6873" y2="498.0606">
			<stop  offset="0" style="stop-color:#FFFFFF"/>
			<stop  offset="0.3081" style="stop-color:#ABDCBB"/>
			<stop  offset="0.6459" style="stop-color:#54B875"/>
			<stop  offset="0.8846" style="stop-color:#1EA149"/>
			<stop  offset="1" style="stop-color:#099838"/>
		</linearGradient>
		<path style="fill:url(#SVGID_00000109015060303355741490000012188455208444230316_);" d="M295.31,524.45
			c3.31,0.85,6.3,3.94,6.94,7.38c1.34,7.15-4.4,13.77-5.05,14.5l-9.98,11.09l-14.63,16.26l-14.19,15.77l-14.29,15.88
			c2.41,1.64,4.88,3.28,7.26,4.87c2.18,1.45,4.43,2.95,6.64,4.44c0.65,0.44,1.41,0.67,2.19,0.67c0,0,0,0,0,0
			c0.72,0,1.43-0.2,2.05-0.58c5.31-3.27,10.36-6.6,15.03-9.88c6.31-4.44,11.97-8.82,17.31-13.4c2.6-2.23,5.19-4.57,7.69-6.97
			c2.78-2.65,5.44-5.37,7.94-8.08c0.56-0.61,1.12-1.22,1.66-1.83c2.72-3.05,5.1-6.02,7.23-9.03c1.76-3.74,2.75-7.91,2.75-12.31
			C321.86,538.07,310.17,525.63,295.31,524.45z"/>
		
			<linearGradient id="SVGID_00000158030761933923825000000000583974797912704130_" gradientUnits="userSpaceOnUse" x1="304.48" y1="517.8782" x2="201.7162" y2="601.3349">
			<stop  offset="0" style="stop-color:#FFFFFF"/>
			<stop  offset="0.3081" style="stop-color:#ABDCBB"/>
			<stop  offset="0.6459" style="stop-color:#54B875"/>
			<stop  offset="0.8846" style="stop-color:#1EA149"/>
			<stop  offset="1" style="stop-color:#099838"/>
		</linearGradient>
		<path style="fill:url(#SVGID_00000158030761933923825000000000583974797912704130_);" d="M324.93,512.95
			c-2.72-4.69-6.35-8.8-10.49-11.89c-0.57-0.43-1.19-0.86-1.82-1.28c-6.14-4.04-13.15-6.18-20.27-6.18c-8.1,0-15.76,2.88-21.57,8.12
			c-1.37,1.24-6.44,6.82-12.06,13.1c-8.46,9.45-18.15,20.49-18.33,20.7l-5.81,6.19c-0.01,0.01-0.03,0.03-0.04,0.04
			c-1.64,1.6-3.89,2.47-6.32,2.47c-2.71,0-5.4-1.1-7.02-2.88c-1.54-1.69-3.3-4.73-3.23-7.78c0.07-2.91,1.05-5.12,2-6.6
			c-5.82,6.74-9.34,15.52-9.34,25.13c0,7.98,2.43,15.4,6.59,21.55c2.52,0.59,5.16,0.89,7.93,0.89c0.44,0,0.88-0.01,1.31-0.02
			c11.08-0.39,21.63-5.27,28.95-13.4l8.77-9.74l17.63-19.59l0.54-0.6c3.8-4.67,6.69-6.27,8.8-6.78c0.73-0.18,1.37-0.23,1.92-0.23
			c0.42,0,0.81,0.03,1.13,0.06c0.37,0.04,0.75,0.1,1.11,0.2c14.86,1.18,26.55,13.62,26.55,28.79c0,4.4-0.99,8.58-2.75,12.31
			c0.36-0.51,0.71-1.01,1.05-1.52c0.8-1.19,1.52-2.3,2.2-3.42c2.1-3.45,3.88-6.99,5.29-10.52c0.52-1.29,0.98-2.63,1.38-4.01
			C332.24,535.04,330.74,522.96,324.93,512.95z"/>
	</g>
</g>
</svg>
