<?xml version="1.0" encoding="utf-8"?>
<!-- Generator: Adobe Illustrator 26.2.1, SVG Export Plug-In . SVG Version: 6.00 Build 0)  -->
<svg version="1.1" id="Layer_1" xmlns="http://www.w3.org/2000/svg" xmlns:xlink="http://www.w3.org/1999/xlink" x="0px" y="0px"
	 viewBox="0 0 1080 1080" style="enable-background:new 0 0 1080 1080;" xml:space="preserve">
<style type="text/css">
	.st0{fill:#099838;}
	.st1{fill:url(#SVGID_1_);}
	.st2{fill:url(#SVGID_00000084512620718885366270000003664798399876590516_);}
	.st3{fill:url(#SVGID_00000136381511931029069490000000436920747386112167_);}
</style>
<g>
	<path class="st0" d="M343.69,496.19h24.02v8.3c7.95-7.77,19.78-10.6,29.67-10.6c27.02,0,45.4,19.43,45.4,50.34
		s-18.19,50.52-46.46,50.52c-9.36,0-21.02-2.3-28.61-11.48v40.45h-24.02V496.19z M417.7,544.24c0-18.19-10.77-28.44-26.14-28.44
		c-9.36,0-19.25,4.42-24.2,12.36v31.97c5.12,9.01,14.48,12.72,23.67,12.72C407.28,572.85,417.7,562.08,417.7,544.24z"/>
	<path class="st0" d="M451.26,544.24c0-30.38,21.37-50.16,53.17-50.16c31.62,0,52.81,19.78,52.81,50.16
		c0,30.91-21.2,50.52-52.81,50.52C472.63,594.76,451.26,575.15,451.26,544.24z M532.16,544.24c0-16.78-11.3-27.91-27.73-27.91
		c-16.6,0-27.91,11.13-27.91,27.91c0,17.13,11.3,28.26,27.91,28.26C520.85,572.5,532.16,561.37,532.16,544.24z"/>
	<path class="st0" d="M698.54,496.19l-33.74,96.97h-13.6l-24.73-58.29l-24.2,58.29h-13.6l-33.74-96.97h25.44l17.31,56.7l22.79-57.05
		h12.36l23.14,57.41l17.66-57.05H698.54z"/>
	<path class="st0" d="M700.66,586.63l7.77-19.25c9.36,5.65,21.55,8.66,32.32,8.66c11.3,0,16.78-3.53,16.78-10.25
		c0-6.01-5.65-8.12-21.37-11.66c-21.55-4.77-34.27-12.01-34.27-30.2c0-19.78,15.37-29.67,38.51-29.67c15.72,0,27.38,3.53,37.8,7.59
		l-7.95,19.43c-8.66-4.59-21.02-7.42-30.03-7.42c-8.48,0-14.13,2.47-14.13,8.3c0,6.18,4.77,8.12,20.84,12.01
		c22.61,5.48,35.33,12.36,35.33,29.32c0,22.08-14.48,31.62-40.8,31.62C725.92,595.11,712.32,592.11,700.66,586.63z"/>
	<path class="st0" d="M889.83,551.66h-74.89c2.65,14.31,12.54,22.43,28.44,22.43c11.3,0,21.37-4.24,27.91-12.36l15.37,13.07
		c-8.83,12.19-22.96,19.78-45.04,19.78c-32.32,0-51.4-19.78-51.4-50.52c0-30.56,20.67-50.52,50.16-50.52
		c33.21,0,49.63,21.2,49.63,50.87C890.01,546,890.01,549.71,889.83,551.66z M815.12,533.99h51.05c-1.41-10.6-9.01-20.14-25.79-20.14
		C828.01,513.86,818.12,520.04,815.12,533.99z"/>
</g>
<g>
	<linearGradient id="SVGID_1_" gradientUnits="userSpaceOnUse" x1="199.2832" y1="554.4331" x2="273.2241" y2="441.9684">
		<stop  offset="0" style="stop-color:#099838"/>
		<stop  offset="0.3081" style="stop-color:#5DBB7C"/>
		<stop  offset="0.6459" style="stop-color:#B4DFC2"/>
		<stop  offset="0.8846" style="stop-color:#EAF6EE"/>
		<stop  offset="1" style="stop-color:#FFFFFF"/>
	</linearGradient>
	<path class="st1" d="M220.04,527.26c0.36-0.56,0.72-1.02,1.02-1.37c0.18-0.21,0.32-0.35,0.43-0.46c2.9-3.03,2.9-3.03,5.31-5.68
		c2.28-2.51,6.98-7.7,18.79-20.56c-2.27-1.31-7.7-4.02-14.81-4.8c-1.35-0.15-2.71-0.22-4.02-0.22c-8.43,0-16.11,3.04-22.82,9.05
		c-1.17,1.05-2.31,2.18-3.39,3.38c-1.05,1.16-2.04,2.4-2.95,3.67c-4.2,5.87-6.74,12.8-7.55,20.56c-0.01,0.08-0.43,8.84,1.52,15.91
		c1.17,4.25,2.5,7.5,4.17,10.24c5.59,9.15,12.83,14.79,21.58,16.86c-4.15-6.13-6.58-13.53-6.58-21.5
		C210.73,542.75,214.24,533.99,220.04,527.26z"/>
	
		<linearGradient id="SVGID_00000034059409274303570010000010814317058826574499_" gradientUnits="userSpaceOnUse" x1="247.218" y1="607.7724" x2="353.4692" y2="498.4144">
		<stop  offset="0" style="stop-color:#099838"/>
		<stop  offset="0.3081" style="stop-color:#5DBB7C"/>
		<stop  offset="0.6459" style="stop-color:#B4DFC2"/>
		<stop  offset="0.8846" style="stop-color:#EAF6EE"/>
		<stop  offset="1" style="stop-color:#FFFFFF"/>
	</linearGradient>
	<path style="fill:url(#SVGID_00000034059409274303570010000010814317058826574499_);" d="M295.23,524.74
		c3.3,0.84,6.28,3.93,6.92,7.37c1.34,7.13-4.39,13.74-5.04,14.47l-9.95,11.06l-14.59,16.22L258.4,589.6l-14.25,15.84
		c2.41,1.64,4.87,3.27,7.25,4.86c2.17,1.45,4.42,2.94,6.62,4.43c0.65,0.44,1.4,0.67,2.18,0.67c0,0,0,0,0,0
		c0.72,0,1.43-0.2,2.04-0.58c5.29-3.27,10.34-6.58,15-9.86c6.29-4.43,11.94-8.8,17.27-13.37c2.59-2.22,5.17-4.56,7.67-6.95
		c2.77-2.65,5.42-5.35,7.92-8.06c0.56-0.61,1.11-1.22,1.66-1.82c2.71-3.04,5.08-6,7.21-9.01c1.76-3.73,2.74-7.89,2.74-12.28
		C321.72,538.33,310.05,525.92,295.23,524.74z"/>
	
		<linearGradient id="SVGID_00000165949999675860782240000014125999831039278996_" gradientUnits="userSpaceOnUse" x1="304.3772" y1="518.1857" x2="201.8541" y2="601.4468">
		<stop  offset="0" style="stop-color:#099838"/>
		<stop  offset="0.3081" style="stop-color:#5DBB7C"/>
		<stop  offset="0.6459" style="stop-color:#B4DFC2"/>
		<stop  offset="0.8846" style="stop-color:#EAF6EE"/>
		<stop  offset="1" style="stop-color:#FFFFFF"/>
	</linearGradient>
	<path style="fill:url(#SVGID_00000165949999675860782240000014125999831039278996_);" d="M324.78,513.27
		c-2.72-4.68-6.33-8.78-10.46-11.86c-0.57-0.43-1.18-0.86-1.82-1.27c-6.13-4.03-13.12-6.17-20.23-6.17c-8.08,0-15.73,2.88-21.52,8.1
		c-1.37,1.23-6.43,6.8-12.03,13.07c-8.44,9.43-18.11,20.45-18.29,20.65l-5.79,6.18c-0.01,0.01-0.03,0.03-0.04,0.04
		c-1.64,1.59-3.88,2.47-6.31,2.47c-2.7,0-5.39-1.1-7.01-2.88c-1.53-1.68-3.3-4.72-3.22-7.76c0.07-2.9,1.05-5.11,1.99-6.58
		c-5.8,6.73-9.31,15.49-9.31,25.07c0,7.96,2.43,15.36,6.58,21.5c2.51,0.59,5.15,0.89,7.91,0.89c0.44,0,0.87-0.01,1.31-0.02
		c11.05-0.38,21.58-5.26,28.88-13.37l8.75-9.72l17.59-19.54l0.54-0.6c3.79-4.66,6.67-6.25,8.78-6.76c0.73-0.18,1.37-0.22,1.92-0.22
		c0.42,0,0.81,0.03,1.12,0.06c0.37,0.04,0.74,0.1,1.11,0.2c14.83,1.18,26.49,13.59,26.49,28.72c0,4.39-0.99,8.56-2.74,12.28
		c0.36-0.5,0.71-1.01,1.05-1.52c0.8-1.18,1.52-2.3,2.19-3.41c2.09-3.45,3.87-6.98,5.28-10.49c0.51-1.28,0.98-2.63,1.37-4
		C332.07,535.31,330.58,523.26,324.78,513.27z"/>
</g>
</svg>
